<svg width="256" height="256" viewBox="0 0 256 256" fill="none" xmlns="http://www.w3.org/2000/svg">
<g clip-path="url(#clip0_38_101)">
<path d="M91 127.875L90.875 127C89.7083 123.917 88.5417 121.125 87.375 118.625C86.2917 116.125 85.375 113.292 84.625 110.125C84.375 109.125 83.9583 108.25 83.375 107.5C82.7917 106.667 82.2083 105.875 81.625 105.125C81.0417 104.292 80.5 103.5 80 102.75C79.5 101.917 79.1667 101.042 79 100.125C78.0833 95.875 77.0833 91.7917 76 87.875C75 83.9583 73.75 80 72.25 76L69.25 69.625L67.5 63.375C66.5833 61.7917 65.4167 60.4167 64 59.25C62.6667 58.0833 61.2917 57 59.875 56C58.4583 54.9167 57.125 53.875 55.875 52.875C54.625 51.875 53.6667 50.7917 53 49.625C52.0833 49.625 51.0417 49.5833 49.875 49.5C48.7917 49.3333 47.7083 49.0417 46.625 48.625C45.625 48.2083 44.75 47.6667 44 47C43.3333 46.25 43 45.2917 43 44.125C43 42.875 43.375 41.9167 44.125 41.25C44.875 40.5833 45.75 40.25 46.75 40.25L54.125 41.125C54.5417 41.125 54.9583 40.9167 55.375 40.5C55.7917 40.0833 56.375 39.875 57.125 39.875C57.7917 39.875 58.375 39.5833 58.875 39H67.5L81.75 40.25C84.5833 40.25 87.1667 39.9167 89.5 39.25C91.9167 38.5833 94.4583 38.0417 97.125 37.625C98.7917 37.5417 100.208 37.4583 101.375 37.375C102.625 37.2917 103.708 37.25 104.625 37.25C105.625 37.25 106.75 37.1667 108 37C109.333 36.75 110.75 36.4583 112.25 36.125C112.5 36.125 113.208 36.2083 114.375 36.375C115.542 36.4583 116.75 36.6667 118 37C119.25 37.3333 120.375 37.8333 121.375 38.5C122.375 39.0833 122.875 39.8333 122.875 40.75L122.25 47.625C122.25 48.125 121.875 48.6667 121.125 49.25C120.458 49.75 119.625 50.25 118.625 50.75C117.708 51.25 116.75 51.6667 115.75 52C114.833 52.25 114.167 52.375 113.75 52.375L109.625 51.5C107.958 51.5 106.583 51.5833 105.5 51.75C104.5 51.8333 103.125 52.0417 101.375 52.375C100.625 52.7083 99.9583 53.2083 99.375 53.875C98.875 54.5417 98.625 55.3333 98.625 56.25C98.625 58.1667 99 59.9583 99.75 61.625C100.5 63.2917 101.042 65.0417 101.375 66.875L102.125 77C102.292 78.4167 102.583 79.8333 103 81.25C103.5 82.5833 104.042 83.9167 104.625 85.25C105.208 86.5833 105.792 87.9167 106.375 89.25C106.958 90.5833 107.417 91.9167 107.75 93.25V99.5C107.75 99.8333 108.083 100.417 108.75 101.25C109.5 102.083 109.958 102.667 110.125 103C111.042 104.667 111.792 106.583 112.375 108.75C112.958 110.833 113.5 113 114 115.25C114.5 117.5 115 119.75 115.5 122C116.083 124.167 116.75 126.125 117.5 127.875C118.333 130.125 119.417 132.5 120.75 135C122.167 137.5 123.167 139.875 123.75 142.125L124.375 149.25C124.875 150.083 125.375 151.292 125.875 152.875C126.458 154.458 127.042 156.042 127.625 157.625C128.292 159.125 128.958 160.458 129.625 161.625C130.375 162.792 131.208 163.375 132.125 163.375C133.542 163.375 134.667 163 135.5 162.25C136.417 161.417 137.333 160.542 138.25 159.625L139.25 158.375C139.667 157.458 139.875 156.667 139.875 156C139.792 155.083 139.75 154.333 139.75 153.75C139.75 153.083 139.75 152.583 139.75 152.25C139.75 151.667 139.792 151.333 139.875 151.25L144 144.5C144.417 143.417 144.875 142.125 145.375 140.625C145.958 139.125 146.5 137.583 147 136C147.583 134.417 148.125 132.833 148.625 131.25C149.208 129.583 149.708 128.083 150.125 126.75C150.625 125.667 151.083 124.375 151.5 122.875C151.917 121.292 152.375 119.708 152.875 118.125C153.375 116.542 153.958 115.042 154.625 113.625C155.292 112.208 156.083 111.042 157 110.125C156.75 109.958 156.625 109.375 156.625 108.375V102.375C156.625 101.958 156.625 101.583 156.625 101.25C156.708 100.917 156.833 100.542 157 100.125C157 99.9583 157.042 99.5833 157.125 99C157.292 98.4167 157.458 97.7917 157.625 97.125C157.875 96.375 158.125 95.6667 158.375 95C158.625 94.25 158.833 93.6667 159 93.25L160.5 90.25V84.125C160.917 83.7917 161.458 83.3333 162.125 82.75C162.792 82.0833 163.125 81.5417 163.125 81.125C164.542 77.625 165.708 73.625 166.625 69.125C167.542 64.625 168 60.25 168 56V53.625C167.25 52.4583 166.417 51.375 165.5 50.375C164.583 49.375 163.25 48.6667 161.5 48.25C160.25 48 158.625 47.875 156.625 47.875C155.292 47.875 153.917 47.8333 152.5 47.75C151.083 47.5833 149.792 47.2917 148.625 46.875C147.458 46.375 146.5 45.7083 145.75 44.875C145 43.9583 144.625 42.7083 144.625 41.125C144.625 39.875 144.833 38.875 145.25 38.125C145.75 37.2917 146.417 36.6667 147.25 36.25C148.083 35.75 149.042 35.4583 150.125 35.375C151.208 35.2083 152.333 35.125 153.5 35.125L175.625 37.875C179.292 37.875 182.958 37 186.625 35.25C188.542 34.75 190.333 34.25 192 33.75C193.667 33.1667 195.25 32.875 196.75 32.875C198.917 33.875 200.958 34.5417 202.875 34.875C204.875 35.125 206.958 35.25 209.125 35.25H211.75C212.25 35.25 212.708 35.25 213.125 35.25C213.625 35.25 214.167 35.2083 214.75 35.125C215.167 35.2917 215.542 35.5 215.875 35.75C216.208 35.9167 216.5 36.0833 216.75 36.25C217 36.4167 217.125 36.5833 217.125 36.75C217.458 37.4167 217.708 38.125 217.875 38.875C218.125 39.625 218.25 40.375 218.25 41.125C218.25 42.9583 217.875 44.4583 217.125 45.625C216.792 46.5417 216.208 47.4167 215.375 48.25C214.542 49 213.917 49.4583 213.5 49.625H206.375L203.25 48.875C202.917 48.875 202.417 48.9583 201.75 49.125C201.167 49.2083 200.5 49.3333 199.75 49.5C199 49.6667 198.25 49.8333 197.5 50C196.833 50.0833 196.333 50.1667 196 50.25C194.083 51.8333 192.458 53.625 191.125 55.625C189.875 57.625 188.792 59.75 187.875 62C187.042 64.1667 186.333 66.4167 185.75 68.75C185.25 71 184.833 73.25 184.5 75.5C184.5 76.0833 184.292 76.5833 183.875 77L180.125 82.25C179.292 83.0833 178.875 84.2083 178.875 85.625C178.875 86.2083 178.875 86.8333 178.875 87.5C178.875 88.0833 178.792 88.7083 178.625 89.375C178.375 89.9583 178.042 90.4583 177.625 90.875C177.208 91.2083 176.75 91.5417 176.25 91.875C175.75 92.2083 175.292 92.5417 174.875 92.875C174.458 93.2083 174.125 93.625 173.875 94.125L174.125 98.625C174.125 100.792 173.875 102.833 173.375 104.75C172.958 106.667 171.958 108.167 170.375 109.25L167.625 120.125C165.875 121.792 164.25 123.958 162.75 126.625C161.333 129.208 160.083 131.708 159 134.125C158.583 135.125 158.333 136.125 158.25 137.125C158.167 138.042 158.042 138.958 157.875 139.875C157.792 140.792 157.542 141.75 157.125 142.75C156.792 143.667 156.125 144.625 155.125 145.625C155.125 147.208 154.917 148.708 154.5 150.125C154.167 151.542 153.708 152.958 153.125 154.375C152.625 155.708 152 157.125 151.25 158.625C150.5 160.042 149.75 161.542 149 163.125C148.25 164.958 147.5 167 146.75 169.25C146 171.5 145.167 173.5 144.25 175.25L142.25 178C141.583 178.667 141.167 179.333 141 180C141 180.5 141.042 181.083 141.125 181.75C141.208 182.417 141.25 183.125 141.25 183.875C141.25 184.958 141.208 185.792 141.125 186.375C141.042 186.958 141 187.417 141 187.75C141 188 140.917 188.417 140.75 189C140.583 189.5 140.375 190.042 140.125 190.625C139.958 191.208 139.792 191.75 139.625 192.25C139.458 192.667 139.333 192.958 139.25 193.125L138.25 195.125C138 195.875 137.708 197.167 137.375 199C137.042 200.75 136.625 202.625 136.125 204.625C135.708 206.542 135.25 208.375 134.75 210.125C134.333 211.875 133.958 213.083 133.625 213.75C132.708 216.667 131.417 218.792 129.75 220.125C128.167 221.458 125.875 222.125 122.875 222.125C122.042 222.125 121.292 221.708 120.625 220.875C119.958 220.125 119.333 219.208 118.75 218.125C118.25 217.042 117.792 215.958 117.375 214.875C117.042 213.792 116.792 212.958 116.625 212.375C116.375 211.792 116 210.542 115.5 208.625C115.083 206.708 114.625 204.625 114.125 202.375C113.708 200.125 113.25 197.958 112.75 195.875C112.333 193.792 111.958 192.25 111.625 191.25C110.708 187.083 109.625 183.167 108.375 179.5C107.125 175.75 106.125 171.875 105.375 167.875C105.208 167.042 104.792 166.375 104.125 165.875C103.542 165.375 102.875 164.917 102.125 164.5C101.458 164 100.792 163.458 100.125 162.875C99.5417 162.292 99.125 161.5 98.875 160.5L97.125 149.25C96.9583 148.833 96.7083 148.125 96.375 147.125C96.0417 146.042 95.7083 144.958 95.375 143.875C95.0417 142.792 94.75 141.792 94.5 140.875C94.25 139.958 94.125 139.375 94.125 139.125C93.7083 137.375 93 135.75 92 134.25C91.0833 132.75 90.625 131.125 90.625 129.375L91 127.875Z" fill="#98AEB8"/>
</g>
<defs>
<clipPath id="clip0_38_101">
<rect width="256" height="256" fill="white"/>
</clipPath>
</defs>
</svg>
